<?xml version="1.0" standalone="no"?>
<!DOCTYPE svg PUBLIC "-//W3C//DTD SVG 20010904//EN"
 "http://www.w3.org/TR/2001/REC-SVG-20010904/DTD/svg10.dtd">
<svg version="1.0" xmlns="http://www.w3.org/2000/svg"
 width="1200.000000pt" height="1200.000000pt" viewBox="0 0 1200.000000 1200.000000"
 preserveAspectRatio="xMidYMid meet">
<metadata>
Created by potrace 1.16, written by Peter Selinger 2001-2019
</metadata>
<g transform="translate(0.000000,1200.000000) scale(0.100000,-0.100000)"
fill="#000000" stroke="none">
<path d="M1200 6000 l0 -1430 1425 0 1425 0 0 1430 0 1430 -1425 0 -1425 0 0
-1430z m1580 750 c80 -44 151 -80 158 -80 14 0 14 -1 16 -93 l1 -69 105 -58
c58 -32 137 -75 175 -97 l70 -38 5 -169 5 -169 70 -37 70 -37 1 -179 c0 -148
-3 -181 -16 -193 -19 -20 -293 -171 -309 -171 -6 0 -29 9 -49 19 l-37 19 -204
-114 c-112 -63 -210 -114 -218 -114 -8 0 -45 17 -81 38 -37 22 -110 63 -162
92 -52 29 -113 63 -136 76 l-41 23 -32 -20 c-52 -32 -41 -36 -293 109 -43 24
-79 47 -79 50 -6 30 -4 341 2 354 5 9 38 33 74 53 l65 36 0 164 0 164 68 39
c37 22 118 68 180 102 l112 63 0 66 c0 36 4 71 8 77 4 6 34 25 67 43 33 17 98
53 145 80 47 27 92 50 100 50 9 1 81 -35 160 -79z"/>
<path d="M2595 6731 c-17 -10 -63 -36 -103 -58 l-74 -40 101 -57 101 -56 43
21 c23 12 70 37 105 56 l63 35 -28 17 c-15 10 -62 36 -103 59 l-75 41 -30 -18z"/>
<path d="M2378 6553 c-2 -5 -3 -55 -3 -113 l1 -104 99 -57 c55 -32 103 -58
108 -58 4 -1 7 51 7 114 0 131 13 112 -122 184 -84 44 -85 45 -90 34z"/>
<path d="M2760 6506 l-95 -53 -3 -117 c-1 -64 -1 -116 1 -116 11 0 193 104
202 115 8 9 12 164 6 218 -2 13 -14 7 -111 -47z"/>
<path d="M2158 6346 c-70 -39 -130 -75 -134 -79 -9 -8 -11 -215 -3 -228 3 -6
26 1 54 15 l47 26 42 -24 c22 -13 86 -48 142 -79 55 -32 105 -57 111 -57 34 0
38 -24 33 -206 l-5 -179 -77 -45 c-43 -25 -78 -48 -78 -51 0 -3 12 -11 28 -18
23 -11 99 -52 268 -147 l40 -23 100 56 c54 31 130 74 168 96 l69 40 -37 21
c-21 12 -58 33 -82 48 l-44 28 0 173 c0 201 -11 178 125 254 50 28 115 64 146
81 l55 31 48 -25 c30 -16 51 -22 55 -16 5 8 7 195 2 224 -1 3 -36 25 -78 49
-43 23 -105 57 -138 75 l-60 33 -5 -67 -5 -67 -160 -89 -160 -89 -40 23 c-22
12 -89 49 -150 82 -60 33 -116 65 -122 70 -8 7 -13 35 -13 74 0 35 -3 63 -7
63 -5 -1 -65 -34 -135 -73z"/>
<path d="M2027 5941 c-49 -27 -93 -53 -98 -58 -7 -7 21 -27 85 -62 52 -28 101
-51 108 -51 7 0 57 24 110 53 l97 53 -102 57 c-57 31 -105 57 -107 57 -3 -1
-45 -23 -93 -49z"/>
<path d="M3026 5934 c-55 -30 -101 -56 -103 -57 -1 -2 45 -27 102 -57 l104
-55 96 51 c53 28 97 55 98 60 1 7 -176 111 -193 113 -3 0 -50 -24 -104 -55z"/>
<path d="M1872 5695 l3 -117 95 -54 c52 -30 98 -54 102 -54 5 0 7 52 6 115
l-3 116 -103 55 -103 56 3 -117z"/>
<path d="M2263 5753 l-103 -55 0 -118 0 -119 84 47 c139 78 127 60 124 188
l-3 112 -102 -55z"/>
<path d="M2880 5691 c0 -67 3 -121 8 -121 4 0 51 -24 105 -54 l98 -54 -3 119
-3 120 -102 55 -103 55 0 -120z"/>
<path d="M3273 5754 l-103 -55 0 -115 c0 -63 3 -114 6 -114 14 0 196 104 200
114 3 7 3 60 2 119 l-3 106 -102 -55z"/>
</g>
</svg>
