<?xml version="1.0" standalone="no"?>
<!DOCTYPE svg PUBLIC "-//W3C//DTD SVG 20010904//EN"
 "http://www.w3.org/TR/2001/REC-SVG-20010904/DTD/svg10.dtd">
<svg version="1.0" xmlns="http://www.w3.org/2000/svg"
 width="1200.000000pt" height="1200.000000pt" viewBox="0 0 1200.000000 1200.000000"
 preserveAspectRatio="xMidYMid meet">
<metadata>
Created by potrace 1.16, written by Peter Selinger 2001-2019
</metadata>
<g transform="translate(0.000000,1200.000000) scale(0.100000,-0.100000)"
fill="#000000" stroke="none">
<path d="M0 6000 l0 -6000 6000 0 6000 0 0 6000 0 6000 -6000 0 -6000 0 0
-6000z m2781 750 c79 -44 150 -80 157 -80 14 0 14 -1 16 -93 l1 -69 105 -58
c58 -32 137 -75 175 -97 l70 -38 5 -169 5 -169 70 -37 70 -37 0 -172 c0 -95
-3 -180 -6 -189 -7 -17 -295 -182 -318 -182 -6 0 -29 9 -49 19 l-37 19 -204
-114 c-112 -63 -209 -114 -215 -114 -7 0 -104 51 -217 114 l-204 114 -33 -19
c-18 -10 -40 -19 -49 -19 -16 0 -298 152 -318 171 -12 12 -15 337 -3 361 4 9
37 33 73 53 l65 36 0 164 0 164 68 39 c37 22 118 68 180 102 l112 63 0 67 c0
48 4 71 15 80 28 24 290 168 306 169 9 1 81 -35 160 -79z m2869 -311 l0 -191
42 37 c55 46 133 70 206 61 64 -8 86 -18 130 -59 55 -53 62 -96 62 -399 l0
-268 -60 0 -60 0 0 268 c0 247 -2 269 -20 299 -50 83 -176 82 -257 -3 l-43
-44 0 -260 0 -260 -60 0 -60 0 0 505 0 505 60 0 60 0 0 -191z m3910 -314 l0
-505 -60 0 -60 0 0 505 0 505 60 0 60 0 0 -505z m-4423 425 c91 -45 142 -114
169 -227 l12 -53 -62 0 -63 0 -16 60 c-24 83 -75 134 -152 150 -126 26 -234
-27 -284 -141 -43 -97 -51 -318 -16 -437 43 -145 154 -212 300 -182 78 16 127
64 152 148 l18 62 59 0 59 0 -6 -45 c-9 -61 -49 -137 -98 -185 -59 -57 -134
-83 -244 -84 -127 -1 -182 19 -261 98 -92 92 -124 192 -124 386 0 131 12 196
49 275 70 151 193 221 366 210 62 -4 94 -11 142 -35z m2153 -135 l0 -85 65 0
65 0 0 -45 0 -45 -65 0 -65 0 0 -242 c0 -134 4 -248 8 -254 15 -23 54 -36 88
-29 l34 6 0 -49 c0 -47 -1 -50 -31 -56 -53 -10 -92 -6 -136 13 -74 34 -77 49
-83 346 l-5 260 -62 3 -63 3 0 44 0 45 65 0 65 0 0 85 0 85 60 0 60 0 0 -85z
m500 0 l0 -85 65 0 65 0 0 -45 0 -45 -65 0 -65 0 0 -242 c0 -134 4 -248 8
-254 15 -23 54 -36 88 -29 l34 6 0 -49 c0 -47 -1 -50 -31 -56 -53 -10 -92 -6
-136 13 -74 34 -77 49 -83 346 l-5 260 -62 3 -63 3 0 44 0 45 65 0 65 0 0 85
0 85 60 0 60 0 0 -85z m-1054 -90 c52 -21 92 -61 115 -111 16 -34 18 -70 20
-245 1 -186 7 -277 24 -329 6 -18 1 -20 -59 -20 l-66 0 -6 40 -6 39 -37 -29
c-102 -81 -252 -77 -344 9 -44 41 -60 80 -60 146 0 80 29 136 91 176 63 40
107 51 237 58 l110 6 -3 49 c-5 93 -54 136 -154 136 -74 0 -147 -46 -148 -92
0 -15 -10 -18 -60 -18 -56 0 -60 1 -60 24 0 24 40 91 69 114 29 22 90 52 128
62 52 13 162 5 209 -15z m1791 0 c53 -22 108 -79 133 -137 19 -45 36 -141 35
-208 l0 -25 -243 -3 -244 -2 7 -43 c10 -62 54 -136 98 -165 77 -51 197 -38
268 29 l32 30 33 -23 c19 -13 34 -28 34 -33 0 -20 -75 -84 -125 -107 -75 -33
-200 -32 -276 3 -132 62 -201 199 -185 371 15 165 90 274 219 320 60 22 152
19 214 -7z m707 19 c12 -5 16 -20 16 -60 l0 -54 -57 0 c-70 0 -119 -23 -150
-69 -22 -33 -23 -41 -23 -287 l0 -254 -60 0 -60 0 0 355 0 355 60 0 60 0 0
-37 0 -37 33 32 c52 51 131 75 181 56z m730 -281 c53 -160 91 -260 96 -252 4
8 42 128 85 267 l78 252 65 0 c57 0 63 -2 57 -17 -3 -10 -69 -197 -146 -417
-76 -219 -149 -418 -161 -443 -46 -91 -140 -140 -225 -117 -20 5 -23 13 -23
54 l0 48 55 4 c70 6 96 29 130 117 l26 66 -119 330 c-66 182 -123 340 -126
353 -7 21 -5 22 56 22 l63 0 89 -267z"/>
<path d="M2570 6718 c-30 -17 -77 -43 -103 -58 l-49 -27 101 -57 101 -56 43
21 c23 12 70 37 105 56 l63 35 -28 17 c-15 10 -62 36 -103 58 l-75 41 -55 -30z"/>
<path d="M2376 6453 c1 -60 2 -111 3 -115 1 -5 169 -101 203 -116 5 -2 8 48 8
112 0 132 13 113 -122 185 -43 22 -81 41 -85 41 -5 0 -7 -48 -7 -107z"/>
<path d="M2760 6507 l-95 -52 -3 -118 c-1 -64 1 -117 5 -116 4 0 53 26 108 57
l100 57 0 112 c0 69 -4 113 -10 113 -5 0 -53 -24 -105 -53z"/>
<path d="M2150 6341 l-135 -76 0 -118 c0 -64 3 -117 7 -117 4 0 28 11 54 25
l46 25 42 -24 c165 -93 244 -135 263 -141 12 -3 23 -13 25 -22 2 -9 1 -93 -2
-187 l-5 -171 -77 -45 c-43 -25 -78 -47 -78 -50 0 -3 28 -20 63 -38 34 -17
109 -58 167 -91 l105 -59 60 34 c33 19 108 60 167 91 60 32 108 61 108 64 0 3
-28 21 -62 39 -104 55 -98 39 -98 235 0 199 -11 176 125 252 50 28 115 64 146
82 l56 31 47 -25 c26 -14 50 -25 54 -25 4 0 7 53 7 117 l0 118 -140 78 -140
77 -5 -67 -5 -67 -160 -89 -160 -89 -40 22 c-22 12 -89 49 -150 82 -60 33
-116 65 -122 70 -8 7 -13 35 -13 74 0 35 -3 64 -7 63 -5 -1 -69 -36 -143 -78z"/>
<path d="M2021 5937 c-52 -28 -94 -56 -93 -61 0 -5 45 -32 99 -61 l98 -52 102
56 102 57 -102 57 c-57 31 -105 57 -107 57 -3 0 -47 -24 -99 -53z"/>
<path d="M3027 5936 c-53 -29 -99 -55 -101 -57 -3 -3 16 -16 42 -29 26 -14 72
-39 103 -56 l56 -31 102 54 c55 30 99 58 96 63 -4 7 -192 111 -198 110 -1 -1
-46 -25 -100 -54z"/>
<path d="M1872 5694 l3 -117 95 -54 c52 -29 98 -53 103 -53 4 0 6 52 5 116
l-3 116 -103 55 -103 55 3 -118z"/>
<path d="M2263 5753 l-103 -55 0 -118 0 -119 93 51 c50 28 98 56 105 62 9 9
12 43 10 123 l-3 111 -102 -55z"/>
<path d="M2882 5694 l3 -118 103 -58 103 -57 -3 120 -3 120 -103 56 -103 55 3
-118z"/>
<path d="M3275 5756 l-100 -54 -3 -116 c-1 -64 0 -116 3 -116 15 0 197 104
201 114 3 7 3 60 2 119 l-3 106 -100 -53z"/>
<path d="M6595 5969 c-130 -13 -194 -90 -151 -181 34 -71 135 -92 223 -46 69
35 87 65 88 149 1 40 -3 73 -9 77 -14 8 -74 9 -151 1z"/>
<path d="M8335 6236 c-57 -26 -115 -110 -115 -166 0 -19 6 -20 179 -20 l180 0
-6 38 c-7 49 -41 110 -75 135 -34 26 -122 33 -163 13z"/>
</g>
</svg>
